<svg width="19" height="19" viewBox="0 0 19 19" fill="none" xmlns="http://www.w3.org/2000/svg">
<path d="M14.6895 5.71736C14.3741 5.41331 14.0002 5.17278 13.5893 5.00952C13.1784 4.84627 12.7385 4.76348 12.2947 4.76591C11.8509 4.76833 11.4119 4.85591 11.0029 5.02365C10.5939 5.19138 10.2228 5.43598 9.91098 5.74345C9.60326 5.42734 9.23383 5.17422 8.82434 4.99893C8.41484 4.82365 7.97354 4.72972 7.52628 4.72267C7.07903 4.71561 6.63482 4.79556 6.21972 4.95784C5.80461 5.12011 5.42694 5.36145 5.10887 5.66769C4.79079 5.97393 4.5387 6.33892 4.36737 6.74126C4.19604 7.1436 4.10892 7.5752 4.11112 8.01075C4.11333 8.4463 4.2048 8.87704 4.38019 9.27772C4.55557 9.6784 4.81134 10.041 5.1325 10.3441L9.6269 14.7178C9.66404 14.7544 9.70828 14.7835 9.75704 14.8033C9.80581 14.8231 9.85813 14.8333 9.91098 14.8333C9.96383 14.8333 10.0162 14.8231 10.0649 14.8033C10.1137 14.7835 10.1579 14.7544 10.1951 14.7178L14.6895 10.3441C15.3155 9.72847 15.6666 8.89711 15.6666 8.03074C15.6666 7.16438 15.3155 6.33302 14.6895 5.71736ZM14.1213 9.79612L9.91098 13.8879L6.01155 10.091L5.70067 9.79612C5.22327 9.32825 4.95534 8.69549 4.95534 8.03596C4.95534 7.37643 5.22327 6.74368 5.70067 6.2758C6.87184 5.15369 8.61117 5.38333 9.62958 6.58112C9.70847 6.64881 9.80864 6.68838 9.91366 6.69334C10.0189 6.68705 10.1189 6.64662 10.1977 6.57852C12.591 3.82019 16.5494 7.12392 14.1213 9.79612Z" fill="#47B0D5" stroke="#47B0D5" stroke-width="0.433333"/>
</svg>
